<?xml version="1.0" encoding="UTF-8"?>
<svg id="Warstwa_1" xmlns="http://www.w3.org/2000/svg" version="1.1" viewBox="0 0 1080 1080">
  <!-- Generator: Adobe Illustrator 30.1.0, SVG Export Plug-In . SVG Version: 2.1.1 Build 136)  -->
  <defs>
    <style>
      .st0 {
        fill: #ede1d1;
      }
    </style>
  </defs>
  <g>
    <path class="st0" d="M621.25,498.42c-4.05-26.09-16.88-70.23-57.19-72.7-4.64-.28-9.36.04-14.12.89,5.48-46.62,2.63-98.98-14.3-141.91-10.61-26.9-29.36-56.4-62.52-73.59-4.44,3.01-8.66,6.31-12.63,9.89,28.29,12.14,49.3,35.36,62.75,69.49,17.21,43.62,18.77,95.52,12.59,140.11-31.87,12.16-62.02,44.4-69.36,72.18-4.81,18.22.37,33.43,14.2,41.74,5.46,3.28,16.59,6.87,29.63-6,16.22-16.01,30.47-52.79,37.51-96.55,5.26-1.31,10.47-1.89,15.5-1.58,29.41,1.8,40.51,33.88,44.65,60.48,3.86,24.84-.64,50.86-6.99,72.38,6.16-3.67,11.96-7.89,17.34-12.59,4.2-19.39,6.24-41,2.94-62.24ZM501.24,527.64c-7.85,7.75-12.36,5.04-14.06,4.02-3.05-1.84-12.34-7.41-7.75-24.82,5.78-21.88,28.76-47.29,53.65-59.4-7.15,37.75-19.62,68.13-31.84,80.2Z"/>
    <path class="st0" d="M540,182.36c-28.18,0-54.26,9.2-75.38,24.76-4.44,3.27-8.67,6.82-12.64,10.63-24.25,23.2-39.37,55.87-39.37,92v161.09c0,70.24,57.15,127.39,127.39,127.39,20.62,0,40.11-4.93,57.36-13.66,6.22-3.15,12.15-6.79,17.73-10.88,31.68-23.2,52.3-60.66,52.3-102.85v-161.09c0-70.24-57.15-127.39-127.39-127.39ZM659.22,470.84c0,35.79-15.85,67.95-40.91,89.82-5.38,4.7-11.18,8.92-17.34,12.59-17.85,10.68-38.71,16.81-60.97,16.81-65.74,0-119.22-53.48-119.22-119.22v-161.09c0-35.21,15.35-66.91,39.71-88.75,3.97-3.58,8.19-6.88,12.63-9.89,19.08-12.99,42.11-20.58,66.88-20.58,65.74,0,119.22,53.49,119.22,119.22v161.09Z"/>
  </g>
  <g>
    <path class="st0" d="M251.53,642.93h69.2c12.68,0,22.71,3.1,30.06,9.3,7.35,6.2,11.03,14.63,11.03,25.3,0,7.78-1.98,14.42-5.95,19.89-3.97,5.48-9.62,9.44-16.98,11.89,5.48,1.3,10.41,3.21,14.81,5.73,4.4,2.52,8.14,5.62,11.25,9.3,3.1,3.68,5.51,7.86,7.24,12.54,1.73,4.69,2.59,9.7,2.59,15.03,0,6.34-1.19,12.15-3.57,17.41-2.38,5.26-5.73,9.73-10.05,13.41-4.32,3.68-9.55,6.52-15.68,8.54-6.13,2.02-12.94,3.03-20.44,3.03h-73.52v-1.08c4.76-1.01,8.11-2.56,10.05-4.65,1.95-2.09,2.92-5.22,2.92-9.41v-121.1c0-4.18-.97-7.32-2.92-9.41-1.95-2.09-5.3-3.64-10.05-4.65v-1.08ZM316.41,707.81c3.75,0,7.21-.76,10.38-2.27,3.17-1.51,5.91-3.64,8.22-6.38,2.3-2.74,4.11-5.98,5.41-9.73,1.3-3.75,1.95-7.79,1.95-12.11s-.65-8.33-1.95-12c-1.3-3.68-3.1-6.84-5.41-9.51-2.31-2.67-5.05-4.76-8.22-6.27-3.17-1.51-6.63-2.27-10.38-2.27h-19.46c-8.65,0-12.98,4.9-12.98,14.7v45.84h32.44ZM283.97,712.13v63.14c0,9.81,4.33,14.7,12.98,14.7h23.79c4.76,0,9.12-.94,13.08-2.81,3.96-1.87,7.39-4.54,10.27-8,2.88-3.46,5.11-7.57,6.7-12.33,1.58-4.76,2.38-10.02,2.38-15.79s-.79-11.03-2.38-15.79c-1.59-4.76-3.82-8.87-6.7-12.33-2.89-3.46-6.31-6.13-10.27-8-3.97-1.87-8.33-2.81-13.08-2.81h-36.76Z"/>
    <path class="st0" d="M441.83,644.01c-4.76,1.01-8.11,2.56-10.05,4.65-1.95,2.09-2.92,5.23-2.92,9.41v116.55c0,10.24,4.33,15.35,12.98,15.35h16.87c8.94,0,16.4-1.73,22.38-5.19,5.98-3.46,11.28-9.08,15.9-16.87l1.08.43-5.84,25.95h-95.8v-1.08c4.76-1.01,8.11-2.56,10.05-4.65,1.95-2.09,2.92-5.22,2.92-9.41v-121.1c0-4.18-.97-7.32-2.92-9.41-1.95-2.09-5.3-3.64-10.05-4.65v-1.08h45.41v1.08Z"/>
    <path class="st0" d="M532.65,658.07c0-4.18-.97-7.32-2.92-9.41-1.95-2.09-5.3-3.64-10.05-4.65v-1.08h45.41v1.08c-4.76,1.01-8.11,2.56-10.05,4.65-1.95,2.09-2.92,5.23-2.92,9.41v121.1c0,4.18.97,7.32,2.92,9.41,1.95,2.09,5.3,3.64,10.05,4.65v1.08h-45.41v-1.08c4.76-1.01,8.11-2.56,10.05-4.65,1.95-2.09,2.92-5.22,2.92-9.41v-121.1Z"/>
    <path class="st0" d="M638.39,796.47c-10.67,0-20.4-1.73-29.19-5.19-8.8-3.46-16.43-8.43-22.92-14.92l13.62-16.43c6.63,8.65,14.27,15.61,22.92,20.87,8.65,5.26,17.66,7.89,27.03,7.89s16.14-2.38,21.62-7.14c5.48-4.76,8.22-11.17,8.22-19.25,0-5.33-1.26-9.98-3.79-13.95-2.52-3.96-5.81-7.46-9.84-10.49-4.04-3.03-8.65-5.73-13.84-8.11-5.19-2.38-10.53-4.72-16-7.03-5.48-2.3-10.81-4.72-16-7.24-5.19-2.52-9.81-5.37-13.84-8.54-4.04-3.17-7.32-6.81-9.84-10.92-2.52-4.11-3.78-8.97-3.78-14.6s1.3-11.1,3.89-16c2.59-4.9,6.2-9.19,10.81-12.87,4.61-3.68,10.02-6.56,16.22-8.65,6.2-2.09,12.83-3.14,19.89-3.14,8.79,0,16.87,1.59,24.22,4.76,7.35,3.17,13.77,7.78,19.25,13.84l-13.41,16.22c-5.48-8.22-11.75-14.78-18.81-19.68-7.07-4.9-14.42-7.35-22.06-7.35-6.92,0-12.51,2.02-16.76,6.05-4.25,4.04-6.38,9.37-6.38,16s2.16,12.4,6.49,16.87c4.32,4.47,9.69,8.4,16.11,11.79,6.41,3.39,13.37,6.56,20.87,9.51,7.49,2.96,14.45,6.35,20.87,10.16,6.41,3.82,11.78,8.36,16.11,13.62,4.32,5.26,6.49,11.93,6.49,20,0,6.35-1.44,12.22-4.33,17.62-2.88,5.41-6.92,10.06-12.11,13.95-5.19,3.89-11.35,6.92-18.49,9.08-7.14,2.16-14.89,3.24-23.25,3.24Z"/>
    <path class="st0" d="M770.3,796.47c-10.67,0-20.4-1.73-29.19-5.19-8.8-3.46-16.43-8.43-22.92-14.92l13.62-16.43c6.63,8.65,14.27,15.61,22.92,20.87,8.65,5.26,17.66,7.89,27.03,7.89s16.14-2.38,21.62-7.14c5.48-4.76,8.22-11.17,8.22-19.25,0-5.33-1.26-9.98-3.79-13.95-2.52-3.96-5.81-7.46-9.84-10.49-4.04-3.03-8.65-5.73-13.84-8.11-5.19-2.38-10.53-4.72-16-7.03-5.48-2.3-10.81-4.72-16-7.24-5.19-2.52-9.81-5.37-13.84-8.54-4.04-3.17-7.32-6.81-9.84-10.92-2.52-4.11-3.78-8.97-3.78-14.6s1.3-11.1,3.89-16c2.59-4.9,6.2-9.19,10.81-12.87,4.61-3.68,10.02-6.56,16.22-8.65,6.2-2.09,12.83-3.14,19.89-3.14,8.79,0,16.87,1.59,24.22,4.76,7.35,3.17,13.77,7.78,19.25,13.84l-13.41,16.22c-5.48-8.22-11.75-14.78-18.81-19.68-7.07-4.9-14.42-7.35-22.06-7.35-6.92,0-12.51,2.02-16.76,6.05-4.25,4.04-6.38,9.37-6.38,16s2.16,12.4,6.49,16.87c4.32,4.47,9.69,8.4,16.11,11.79,6.41,3.39,13.37,6.56,20.87,9.51,7.49,2.96,14.45,6.35,20.87,10.16,6.41,3.82,11.78,8.36,16.11,13.62,4.32,5.26,6.49,11.93,6.49,20,0,6.35-1.44,12.22-4.33,17.62-2.88,5.41-6.92,10.06-12.11,13.95-5.19,3.89-11.35,6.92-18.49,9.08-7.14,2.16-14.89,3.24-23.25,3.24Z"/>
  </g>
  <g>
    <path class="st0" d="M415.83,896.56v-41.45c0-1.32-.03-2.56-.09-3.7h4.42c.06.48.11,1.19.14,2.12.03.93.06,1.93.09,2.98.03,1.05.01,2.03-.05,2.93.66-1.5,1.57-2.95,2.71-4.33,1.14-1.38,2.62-2.53,4.42-3.43,1.81-.9,3.94-1.36,6.41-1.36,2.11,0,4.03.35,5.78,1.04,1.75.69,3.25,1.7,4.52,3.03,1.26,1.33,2.2,2.95,2.8,4.88.78-1.57,1.81-3.03,3.07-4.38,1.26-1.36,2.86-2.45,4.79-3.3,1.93-.84,4.21-1.26,6.86-1.26,1.75,0,3.46.27,5.15.81,1.68.54,3.21,1.45,4.56,2.71,1.36,1.26,2.44,2.97,3.25,5.1s1.22,4.77,1.22,7.9v29.71h-4.52v-29.17c0-1.5-.17-3.01-.5-4.51-.33-1.5-.89-2.88-1.67-4.11-.78-1.23-1.85-2.21-3.21-2.94-1.36-.72-3.09-1.08-5.19-1.08-2.89,0-5.28.71-7.18,2.12-1.9,1.42-3.3,3.31-4.2,5.69-.9,2.38-1.35,5.04-1.35,7.99v26.01h-4.43v-29.08c0-1.63-.15-3.21-.45-4.74-.3-1.53-.83-2.9-1.58-4.11-.75-1.2-1.79-2.15-3.12-2.84-1.33-.69-3.04-1.04-5.15-1.04s-4.06.45-5.69,1.35-2.98,2.14-4.06,3.7c-1.08,1.57-1.9,3.37-2.44,5.42-.54,2.05-.81,4.22-.81,6.5v24.84h-4.52Z"/>
    <path class="st0" d="M512.46,893.39c2.11,0,3.9-.27,5.37-.81,1.47-.54,2.71-1.23,3.7-2.08.99-.84,1.79-1.76,2.39-2.76s1.11-1.94,1.54-2.84h4.61c-.36,1.2-.86,2.41-1.49,3.61-.63,1.21-1.43,2.35-2.39,3.43-.96,1.08-2.09,2.06-3.39,2.94-1.3.87-2.81,1.55-4.56,2.03-1.75.48-3.73.72-5.96.72-3.43,0-6.35-.66-8.76-1.99-2.41-1.32-4.38-3.12-5.91-5.37-1.54-2.26-2.65-4.76-3.34-7.5-.69-2.74-1.04-5.55-1.04-8.44,0-2.59.25-5.07.77-7.45.51-2.38,1.29-4.58,2.35-6.59,1.05-2.02,2.36-3.76,3.93-5.24,1.57-1.47,3.39-2.63,5.46-3.48,2.08-.84,4.44-1.26,7.09-1.26,3.49,0,6.41.66,8.76,1.99,2.35,1.32,4.23,3.02,5.64,5.1,1.41,2.08,2.42,4.3,3.03,6.68.6,2.38.9,4.62.9,6.73v2.48c0,.39-.03.8-.09,1.22h-33.23c.06,3.85.69,7.2,1.9,10.02,1.2,2.83,2.9,5.01,5.1,6.55,2.2,1.54,4.74,2.3,7.63,2.3ZM512.64,854.56c-1.87,0-3.54.26-5.01.77-1.47.51-2.75,1.24-3.84,2.17-1.08.93-2.02,2.05-2.8,3.34-.78,1.3-1.42,2.75-1.9,4.38-.48,1.63-.81,3.4-.99,5.33h28.36c0-2.23-.32-4.3-.95-6.23-.63-1.93-1.54-3.63-2.71-5.1-1.17-1.47-2.6-2.62-4.29-3.43-1.69-.81-3.64-1.22-5.87-1.22Z"/>
    <path class="st0" d="M548.67,881.11v-51.12h4.52v28.99c.72-1.5,1.73-2.92,3.02-4.24s2.95-2.39,4.97-3.21,4.5-1.22,7.45-1.22c3.55,0,6.73.92,9.53,2.76,2.8,1.84,5,4.46,6.59,7.86,1.59,3.4,2.39,7.42,2.39,12.06,0,2.83-.27,5.51-.81,8.04-.54,2.53-1.35,4.8-2.44,6.82-1.08,2.02-2.42,3.76-4.02,5.24-1.6,1.48-3.43,2.6-5.51,3.39-2.08.78-4.38,1.17-6.91,1.17s-4.71-.33-6.55-.99c-1.84-.66-3.39-1.61-4.65-2.84-1.26-1.23-2.29-2.69-3.07-4.38v2.17c0,.72-.02,1.4-.05,2.03-.03.63-.06,1.21-.09,1.72s-.05.92-.05,1.22h-4.42c.06-1.75.09-3.48.09-5.19v-10.25ZM567.64,893.39c1.81,0,3.48-.3,5.01-.9,1.53-.6,2.9-1.47,4.11-2.62,1.2-1.14,2.23-2.53,3.07-4.15.84-1.63,1.47-3.51,1.9-5.64.42-2.14.63-4.47.63-7,0-2.83-.33-5.37-.99-7.63-.66-2.26-1.63-4.2-2.89-5.82-1.26-1.63-2.76-2.88-4.47-3.75-1.72-.87-3.66-1.31-5.82-1.31s-4.2.3-5.91.9-3.16,1.46-4.34,2.57c-1.17,1.11-2.14,2.47-2.89,4.06-.75,1.6-1.3,3.4-1.63,5.42-.33,2.02-.5,4.2-.5,6.55,0,2.65.24,5.15.72,7.5.48,2.35,1.29,4.41,2.44,6.19,1.14,1.78,2.66,3.16,4.56,4.15,1.9.99,4.23,1.49,7,1.49Z"/>
    <path class="st0" d="M609,896.56h-4.52v-66.56h4.52v66.56Z"/>
    <path class="st0" d="M645.57,893.39c2.11,0,3.9-.27,5.37-.81,1.47-.54,2.71-1.23,3.7-2.08.99-.84,1.79-1.76,2.39-2.76s1.11-1.94,1.54-2.84h4.61c-.36,1.2-.86,2.41-1.49,3.61-.63,1.21-1.43,2.35-2.39,3.43-.96,1.08-2.09,2.06-3.39,2.94-1.3.87-2.81,1.55-4.56,2.03-1.75.48-3.73.72-5.96.72-3.43,0-6.35-.66-8.76-1.99-2.41-1.32-4.38-3.12-5.91-5.37-1.54-2.26-2.65-4.76-3.34-7.5-.69-2.74-1.04-5.55-1.04-8.44,0-2.59.25-5.07.77-7.45.51-2.38,1.29-4.58,2.35-6.59,1.05-2.02,2.36-3.76,3.93-5.24,1.57-1.47,3.39-2.63,5.46-3.48,2.08-.84,4.44-1.26,7.09-1.26,3.49,0,6.41.66,8.76,1.99,2.35,1.32,4.23,3.02,5.64,5.1,1.41,2.08,2.42,4.3,3.03,6.68.6,2.38.9,4.62.9,6.73v2.48c0,.39-.03.8-.09,1.22h-33.23c.06,3.85.69,7.2,1.9,10.02,1.2,2.83,2.9,5.01,5.1,6.55,2.2,1.54,4.74,2.3,7.63,2.3ZM645.75,854.56c-1.87,0-3.54.26-5.01.77-1.47.51-2.75,1.24-3.84,2.17-1.08.93-2.02,2.05-2.8,3.34-.78,1.3-1.42,2.75-1.9,4.38-.48,1.63-.81,3.4-.99,5.33h28.36c0-2.23-.32-4.3-.95-6.23-.63-1.93-1.54-3.63-2.71-5.1-1.17-1.47-2.6-2.62-4.29-3.43-1.69-.81-3.64-1.22-5.87-1.22Z"/>
  </g>
</svg>