<?xml version="1.0" encoding="UTF-8"?>
<svg id="Warstwa_1" xmlns="http://www.w3.org/2000/svg" version="1.1" viewBox="0 0 1330.84 594.86">
  <!-- Generator: Adobe Illustrator 30.1.0, SVG Export Plug-In . SVG Version: 2.1.1 Build 136)  -->
  <defs>
    <style>
      .st0 {
        fill: #505443;
      }
    </style>
  </defs>
  <g>
    <path class="st0" d="M405.8,154.41h94.12c17.25,0,30.88,4.22,40.88,12.65,10,8.43,15,19.9,15,34.41,0,10.59-2.7,19.61-8.09,27.06-5.4,7.45-13.09,12.84-23.09,16.18,7.45,1.77,14.16,4.37,20.15,7.79,5.98,3.43,11.08,7.65,15.3,12.65,4.21,5,7.5,10.69,9.85,17.06,2.35,6.37,3.53,13.19,3.53,20.44,0,8.63-1.62,16.52-4.85,23.68-3.24,7.16-7.79,13.24-13.68,18.24s-12.99,8.87-21.32,11.62c-8.34,2.75-17.6,4.12-27.8,4.12h-100.01v-1.47c6.47-1.37,11.03-3.48,13.68-6.32,2.65-2.84,3.97-7.1,3.97-12.8v-164.71c0-5.69-1.32-9.95-3.97-12.8-2.65-2.84-7.21-4.95-13.68-6.32v-1.47ZM494.03,242.65c5.1,0,9.8-1.03,14.12-3.09,4.31-2.06,8.04-4.95,11.18-8.68,3.13-3.72,5.59-8.13,7.35-13.24,1.76-5.1,2.65-10.59,2.65-16.47s-.88-11.33-2.65-16.32c-1.77-5-4.22-9.31-7.35-12.94-3.14-3.63-6.87-6.47-11.18-8.53-4.32-2.06-9.02-3.09-14.12-3.09h-26.47c-11.77,0-17.65,6.67-17.65,20v62.36h44.12ZM449.92,248.54v85.89c0,13.34,5.88,20,17.65,20h32.35c6.47,0,12.4-1.27,17.79-3.82,5.39-2.54,10.05-6.18,13.97-10.88,3.92-4.7,6.96-10.29,9.12-16.77,2.16-6.47,3.24-13.63,3.24-21.47s-1.08-15-3.24-21.47c-2.16-6.47-5.2-12.06-9.12-16.77-3.93-4.71-8.58-8.33-13.97-10.88-5.4-2.55-11.32-3.82-17.79-3.82h-50Z"/>
    <path class="st0" d="M664.63,155.89c-6.47,1.37-11.03,3.48-13.68,6.32-2.65,2.85-3.97,7.11-3.97,12.8v158.54c0,13.92,5.88,20.88,17.65,20.88h22.94c12.16,0,22.3-2.35,30.44-7.06,8.13-4.71,15.34-12.35,21.62-22.94l1.47.59-7.94,35.3h-130.3v-1.47c6.47-1.37,11.03-3.48,13.68-6.32,2.65-2.84,3.97-7.1,3.97-12.8v-164.71c0-5.69-1.32-9.95-3.97-12.8-2.65-2.84-7.21-4.95-13.68-6.32v-1.47h61.77v1.47Z"/>
    <path class="st0" d="M788.17,175c0-5.69-1.32-9.95-3.97-12.8-2.65-2.84-7.21-4.95-13.68-6.32v-1.47h61.77v1.47c-6.47,1.37-11.03,3.48-13.68,6.32-2.65,2.85-3.97,7.11-3.97,12.8v164.71c0,5.69,1.32,9.95,3.97,12.8,2.65,2.85,7.21,4.95,13.68,6.32v1.47h-61.77v-1.47c6.47-1.37,11.03-3.48,13.68-6.32,2.65-2.84,3.97-7.1,3.97-12.8v-164.71Z"/>
    <path class="st0" d="M932,363.25c-14.51,0-27.75-2.35-39.71-7.06-11.96-4.7-22.35-11.47-31.18-20.29l18.53-22.35c9.02,11.76,19.41,21.23,31.18,28.38,11.76,7.16,24.02,10.74,36.77,10.74s21.96-3.24,29.41-9.71c7.45-6.47,11.18-15.19,11.18-26.18,0-7.25-1.72-13.58-5.15-18.97-3.43-5.39-7.9-10.15-13.38-14.27-5.49-4.12-11.76-7.79-18.82-11.03s-14.32-6.42-21.77-9.56c-7.45-3.13-14.71-6.42-21.77-9.85-7.06-3.43-13.34-7.3-18.82-11.62-5.49-4.31-9.95-9.27-13.38-14.85-3.43-5.59-5.15-12.21-5.15-19.85s1.76-15.1,5.29-21.77c3.53-6.67,8.43-12.5,14.71-17.5,6.27-5,13.63-8.92,22.06-11.76,8.43-2.84,17.45-4.27,27.06-4.27,11.96,0,22.94,2.16,32.94,6.47,10,4.32,18.72,10.59,26.18,18.82l-18.24,22.06c-7.45-11.18-15.98-20.1-25.59-26.77-9.61-6.66-19.61-10-30-10-9.41,0-17.01,2.75-22.79,8.24-5.79,5.49-8.68,12.75-8.68,21.77s2.94,16.87,8.83,22.94c5.88,6.08,13.18,11.42,21.91,16.03,8.72,4.61,18.19,8.92,28.38,12.94,10.19,4.02,19.66,8.63,28.38,13.82,8.72,5.2,16.03,11.38,21.91,18.53,5.88,7.16,8.82,16.23,8.82,27.21,0,8.63-1.96,16.62-5.88,23.97-3.92,7.35-9.41,13.68-16.47,18.97s-15.44,9.41-25.15,12.35c-9.71,2.94-20.25,4.41-31.62,4.41Z"/>
    <path class="st0" d="M1111.42,363.25c-14.51,0-27.75-2.35-39.71-7.06-11.96-4.7-22.35-11.47-31.18-20.29l18.53-22.35c9.02,11.76,19.41,21.23,31.18,28.38,11.76,7.16,24.02,10.74,36.77,10.74s21.96-3.24,29.41-9.71c7.45-6.47,11.18-15.19,11.18-26.18,0-7.25-1.72-13.58-5.15-18.97-3.43-5.39-7.9-10.15-13.38-14.27-5.49-4.12-11.76-7.79-18.82-11.03s-14.32-6.42-21.77-9.56c-7.45-3.13-14.71-6.42-21.77-9.85-7.06-3.43-13.34-7.3-18.82-11.62-5.49-4.31-9.95-9.27-13.38-14.85-3.43-5.59-5.15-12.21-5.15-19.85s1.76-15.1,5.29-21.77c3.53-6.67,8.43-12.5,14.71-17.5,6.27-5,13.63-8.92,22.06-11.76,8.43-2.84,17.45-4.27,27.06-4.27,11.96,0,22.94,2.16,32.94,6.47,10,4.32,18.72,10.59,26.18,18.82l-18.24,22.06c-7.45-11.18-15.98-20.1-25.59-26.77-9.61-6.66-19.61-10-30-10-9.41,0-17.01,2.75-22.79,8.24-5.79,5.49-8.68,12.75-8.68,21.77s2.94,16.87,8.83,22.94c5.88,6.08,13.18,11.42,21.91,16.03,8.72,4.61,18.19,8.92,28.38,12.94,10.19,4.02,19.66,8.63,28.38,13.82,8.72,5.2,16.03,11.38,21.91,18.53,5.88,7.16,8.82,16.23,8.82,27.21,0,8.63-1.96,16.62-5.88,23.97-3.92,7.35-9.41,13.68-16.47,18.97-7.06,5.29-15.44,9.41-25.15,12.35-9.71,2.94-20.25,4.41-31.62,4.41Z"/>
  </g>
  <g>
    <path class="st0" d="M854.84,478.77v-56.01c0-1.79-.04-3.46-.12-5h5.98c.08.65.14,1.61.18,2.87.04,1.26.08,2.6.12,4.03.04,1.42.02,2.74-.06,3.96.89-2.03,2.11-3.98,3.66-5.86,1.54-1.87,3.54-3.42,5.98-4.64,2.44-1.22,5.33-1.83,8.66-1.83,2.85,0,5.45.47,7.81,1.4,2.36.94,4.39,2.3,6.1,4.09,1.71,1.79,2.97,3.99,3.78,6.59,1.06-2.11,2.44-4.09,4.15-5.92,1.71-1.83,3.86-3.31,6.47-4.45,2.6-1.14,5.69-1.71,9.27-1.71,2.36,0,4.68.37,6.96,1.1,2.28.73,4.33,1.95,6.16,3.66,1.83,1.71,3.29,4.01,4.39,6.89s1.65,6.45,1.65,10.68v40.15h-6.1v-39.42c0-2.03-.22-4.07-.67-6.1-.45-2.03-1.2-3.88-2.26-5.55-1.06-1.67-2.5-2.99-4.33-3.97-1.83-.98-4.17-1.46-7.02-1.46-3.9,0-7.14.96-9.7,2.87-2.56,1.91-4.46,4.47-5.68,7.69-1.22,3.21-1.83,6.81-1.83,10.8v35.14h-5.98v-39.29c0-2.2-.2-4.33-.61-6.41-.41-2.07-1.12-3.92-2.14-5.55-1.02-1.63-2.42-2.91-4.21-3.84-1.79-.93-4.11-1.4-6.96-1.4s-5.49.61-7.69,1.83-4.03,2.89-5.49,5c-1.47,2.12-2.56,4.56-3.29,7.32-.73,2.77-1.1,5.7-1.1,8.79v33.56h-6.1Z"/>
    <path class="st0" d="M985.41,474.5c2.85,0,5.27-.37,7.26-1.1,1.99-.73,3.66-1.67,5-2.81,1.34-1.14,2.42-2.38,3.23-3.72s1.51-2.62,2.07-3.84h6.22c-.49,1.63-1.16,3.25-2.01,4.88-.85,1.63-1.93,3.17-3.23,4.64-1.3,1.47-2.83,2.79-4.58,3.97-1.75,1.18-3.8,2.1-6.16,2.74-2.36.65-5.04.98-8.05.98-4.64,0-8.58-.89-11.84-2.68-3.25-1.79-5.92-4.21-7.99-7.26-2.07-3.05-3.58-6.43-4.51-10.13-.94-3.7-1.4-7.51-1.4-11.41,0-3.5.34-6.85,1.04-10.07.69-3.21,1.75-6.18,3.17-8.91,1.42-2.72,3.19-5.08,5.31-7.08,2.11-1.99,4.58-3.56,7.38-4.7,2.81-1.14,6-1.71,9.58-1.71,4.72,0,8.66.9,11.84,2.69,3.17,1.79,5.71,4.09,7.63,6.89,1.91,2.81,3.27,5.82,4.09,9.03.81,3.21,1.22,6.25,1.22,9.09v3.36c0,.53-.04,1.08-.12,1.65h-44.91c.08,5.21.93,9.72,2.56,13.54,1.63,3.83,3.92,6.77,6.89,8.85,2.97,2.07,6.41,3.11,10.31,3.11ZM985.65,422.03c-2.52,0-4.78.35-6.77,1.04-1.99.69-3.72,1.67-5.18,2.93-1.47,1.26-2.73,2.77-3.78,4.51-1.06,1.75-1.91,3.72-2.56,5.92-.65,2.2-1.1,4.6-1.34,7.2h38.32c0-3.01-.43-5.81-1.28-8.42-.85-2.6-2.07-4.9-3.66-6.89-1.59-1.99-3.52-3.54-5.8-4.64-2.28-1.1-4.92-1.65-7.93-1.65Z"/>
    <path class="st0" d="M1034.34,457.9v-69.07h6.1v39.17c.98-2.03,2.34-3.95,4.09-5.73,1.75-1.79,3.99-3.23,6.71-4.33,2.73-1.1,6.08-1.65,10.07-1.65,4.8,0,9.09,1.24,12.87,3.72,3.78,2.48,6.75,6.02,8.91,10.62,2.15,4.6,3.23,10.03,3.23,16.29,0,3.83-.37,7.44-1.1,10.86-.73,3.42-1.83,6.49-3.29,9.21-1.46,2.73-3.28,5.09-5.43,7.08-2.16,1.99-4.64,3.52-7.44,4.58-2.81,1.06-5.92,1.59-9.34,1.59s-6.37-.45-8.85-1.34c-2.48-.89-4.58-2.18-6.29-3.84-1.71-1.67-3.09-3.64-4.15-5.92v2.93c0,.98-.02,1.89-.06,2.74-.04.85-.08,1.63-.12,2.32s-.06,1.24-.06,1.65h-5.98c.08-2.36.12-4.7.12-7.02v-13.85ZM1059.97,474.5c2.44,0,4.7-.41,6.77-1.22,2.07-.81,3.92-1.99,5.55-3.54,1.63-1.55,3.01-3.42,4.15-5.61,1.14-2.2,1.99-4.74,2.56-7.63.57-2.89.85-6.04.85-9.46,0-3.82-.45-7.26-1.34-10.31-.9-3.05-2.2-5.67-3.9-7.87-1.71-2.2-3.72-3.88-6.04-5.06-2.32-1.18-4.94-1.77-7.87-1.77s-5.67.41-7.99,1.22c-2.32.81-4.27,1.97-5.86,3.48-1.59,1.51-2.89,3.34-3.9,5.49-1.02,2.16-1.75,4.6-2.2,7.32-.45,2.73-.67,5.67-.67,8.85,0,3.58.33,6.96.98,10.13.65,3.17,1.75,5.96,3.29,8.36,1.55,2.4,3.6,4.27,6.16,5.61,2.56,1.34,5.71,2.01,9.46,2.01Z"/>
    <path class="st0" d="M1115.86,478.77h-6.1v-89.94h6.1v89.94Z"/>
    <path class="st0" d="M1165.28,474.5c2.85,0,5.27-.37,7.26-1.1,1.99-.73,3.66-1.67,5-2.81,1.34-1.14,2.42-2.38,3.23-3.72.81-1.34,1.51-2.62,2.07-3.84h6.22c-.49,1.63-1.16,3.25-2.01,4.88-.85,1.63-1.93,3.17-3.23,4.64-1.3,1.47-2.83,2.79-4.58,3.97-1.75,1.18-3.8,2.1-6.16,2.74-2.36.65-5.04.98-8.05.98-4.64,0-8.58-.89-11.84-2.68-3.25-1.79-5.92-4.21-7.99-7.26-2.07-3.05-3.58-6.43-4.51-10.13-.94-3.7-1.4-7.51-1.4-11.41,0-3.5.34-6.85,1.04-10.07.69-3.21,1.75-6.18,3.17-8.91,1.42-2.72,3.19-5.08,5.31-7.08,2.11-1.99,4.58-3.56,7.38-4.7,2.81-1.14,6-1.71,9.58-1.71,4.72,0,8.66.9,11.84,2.69,3.17,1.79,5.71,4.09,7.63,6.89,1.91,2.81,3.27,5.82,4.09,9.03.81,3.21,1.22,6.25,1.22,9.09v3.36c0,.53-.04,1.08-.12,1.65h-44.91c.08,5.21.93,9.72,2.56,13.54,1.63,3.83,3.92,6.77,6.89,8.85,2.97,2.07,6.41,3.11,10.31,3.11ZM1165.52,422.03c-2.52,0-4.78.35-6.77,1.04-1.99.69-3.72,1.67-5.18,2.93-1.47,1.26-2.73,2.77-3.78,4.51-1.06,1.75-1.91,3.72-2.56,5.92-.65,2.2-1.1,4.6-1.34,7.2h38.32c0-3.01-.43-5.81-1.28-8.42-.85-2.6-2.07-4.9-3.66-6.89-1.59-1.99-3.52-3.54-5.8-4.64-2.28-1.1-4.92-1.65-7.93-1.65Z"/>
  </g>
  <g>
    <path class="st0" d="M290.02,403.26c-4.05-26.09-16.88-70.23-57.19-72.7-4.64-.28-9.36.04-14.12.89,5.48-46.62,2.63-98.98-14.3-141.91-10.61-26.9-29.36-56.4-62.52-73.59-4.44,3.01-8.66,6.31-12.63,9.89,28.29,12.14,49.3,35.36,62.75,69.49,17.21,43.62,18.77,95.52,12.59,140.11-31.87,12.16-62.02,44.4-69.36,72.18-4.81,18.22.37,33.43,14.2,41.74,5.46,3.28,16.59,6.87,29.63-6,16.22-16.01,30.47-52.79,37.51-96.55,5.26-1.31,10.47-1.89,15.5-1.58,29.41,1.8,40.51,33.88,44.65,60.48,3.86,24.84-.64,50.86-6.99,72.38,6.16-3.67,11.96-7.89,17.34-12.59,4.2-19.39,6.24-41,2.94-62.24ZM170.01,432.48c-7.85,7.75-12.36,5.04-14.06,4.02-3.05-1.84-12.34-7.41-7.75-24.82,5.78-21.88,28.76-47.29,53.65-59.4-7.15,37.75-19.62,68.13-31.84,80.2Z"/>
    <path class="st0" d="M208.77,87.2c-28.18,0-54.26,9.2-75.38,24.76-4.44,3.27-8.67,6.82-12.64,10.63-24.25,23.2-39.37,55.87-39.37,92v161.09c0,70.24,57.15,127.39,127.39,127.39,20.62,0,40.11-4.93,57.36-13.66,6.22-3.15,12.15-6.79,17.73-10.88,31.68-23.2,52.3-60.66,52.3-102.85v-161.09c0-70.24-57.15-127.39-127.39-127.39ZM327.99,375.68c0,35.79-15.85,67.95-40.91,89.82-5.38,4.7-11.18,8.92-17.34,12.59-17.85,10.68-38.71,16.81-60.97,16.81-65.74,0-119.22-53.48-119.22-119.22v-161.09c0-35.21,15.35-66.91,39.71-88.75,3.97-3.58,8.19-6.88,12.63-9.89,19.08-12.99,42.11-20.58,66.88-20.58,65.74,0,119.22,53.49,119.22,119.22v161.09Z"/>
  </g>
</svg>